<svg width="8" height="10" viewBox="0 0 8 10" fill="none" xmlns="http://www.w3.org/2000/svg">
<path d="M0 1.25042C9.49836e-06 1.18197 0.0132805 1.11421 0.0390365 1.05111C0.0647925 0.988007 0.102516 0.930826 0.15 0.882913C0.694922 0.333011 1.42292 0.0175393 2.18583 0.000709597C2.94873 -0.0161201 3.68919 0.266957 4.2565 0.792323L4.432 0.96115C4.79671 1.2901 5.2651 1.47145 5.75 1.47145C6.2349 1.47145 6.70329 1.2901 7.068 0.96115L7.1925 0.844309C7.4975 0.595702 7.956 0.794382 7.9975 1.19226L8 1.25042V5.88285C7.99999 5.9513 7.98672 6.01906 7.96096 6.08216C7.93521 6.14526 7.89748 6.20245 7.85 6.25036C7.30508 6.80026 6.57708 7.11573 5.81417 7.13256C5.05127 7.14939 4.31081 6.86631 3.7435 6.34095L3.568 6.17212C3.21477 5.85352 2.76388 5.67304 2.29436 5.66231C1.82483 5.65158 1.36662 5.81129 1 6.11344V9.48586C0.999859 9.61705 0.951061 9.74323 0.863576 9.83862C0.776091 9.93402 0.656523 9.99143 0.529303 9.99911C0.402082 10.0068 0.27681 9.96419 0.179084 9.87999C0.0813573 9.79579 0.0185518 9.67635 0.00349998 9.54608L0 9.48586V1.25042Z" fill="#B93B3B"/>
</svg>
