<svg width="30" height="30" viewBox="0 0 30 30" fill="none" xmlns="http://www.w3.org/2000/svg">
<path d="M6.5625 14.0625H25.3125C25.5611 14.0625 25.7996 14.1613 25.9754 14.3371C26.1512 14.5129 26.25 14.7514 26.25 15C26.25 15.2486 26.1512 15.4871 25.9754 15.6629C25.7996 15.8387 25.5611 15.9375 25.3125 15.9375H6.5625C6.31386 15.9375 6.0754 15.8387 5.89959 15.6629C5.72377 15.4871 5.625 15.2486 5.625 15C5.625 14.7514 5.72377 14.5129 5.89959 14.3371C6.0754 14.1613 6.31386 14.0625 6.5625 14.0625Z" fill="white"/>
<path d="M6.94908 15.0001L14.7274 22.7725C14.8147 22.8599 14.884 22.9636 14.9313 23.0777C14.9785 23.1918 15.0029 23.3141 15.0029 23.4376C15.0029 23.5611 14.9785 23.6834 14.9313 23.7975C14.884 23.9116 14.8147 24.0153 14.7274 24.1026C14.6401 24.19 14.5364 24.2592 14.4223 24.3065C14.3082 24.3538 14.1859 24.3781 14.0624 24.3781C13.9389 24.3781 13.8166 24.3538 13.7024 24.3065C13.5883 24.2592 13.4847 24.19 13.3973 24.1026L4.95983 15.6651C4.87213 15.578 4.80254 15.4744 4.75505 15.3602C4.70755 15.2461 4.68311 15.1237 4.68311 15.0001C4.68311 14.8765 4.70755 14.7541 4.75505 14.6399C4.80254 14.5258 4.87213 14.4222 4.95983 14.335L13.3973 5.89754C13.4847 5.8102 13.5883 5.74093 13.7024 5.69366C13.8166 5.6464 13.9389 5.62207 14.0624 5.62207C14.1859 5.62207 14.3082 5.6464 14.4223 5.69366C14.5364 5.74093 14.6401 5.8102 14.7274 5.89754C14.8147 5.98487 14.884 6.08855 14.9313 6.20266C14.9785 6.31677 15.0029 6.43907 15.0029 6.56258C15.0029 6.68609 14.9785 6.80839 14.9313 6.92249C14.884 7.0366 14.8147 7.14028 14.7274 7.22762L6.94908 15.0001Z" fill="white"/>
</svg>
